<svg width="38" height="48" viewBox="0 0 38 48" xmlns="http://www.w3.org/2000/svg">
<path d="M36.0333 35.1245C35.0467 34.2225 34.4807 32.9436 34.4807 31.6158V22.5415C34.4807 22.0382 34.0727 21.6301 33.5693 21.6301C33.0659 21.6301 32.6578 22.0382 32.6578 22.5415V31.6158C32.6578 33.4542 33.4399 35.2235 34.8034 36.47C35.2935 36.918 35.5745 37.5554 35.5745 38.2189C35.5745 39.5255 34.5115 40.5885 33.2049 40.5885H4.76711C3.46054 40.5885 2.3975 39.5255 2.3975 38.2189C2.3975 37.5554 2.6785 36.9181 3.1686 36.47C4.53214 35.2235 5.31417 33.4542 5.31417 31.6158V21.0832C5.31417 13.5445 11.4474 7.41133 18.986 7.41133C21.0594 7.41133 23.1016 7.88282 24.9512 8.77961C24.3083 9.81229 23.9355 11.0298 23.9355 12.3332C23.9355 16.0523 26.9612 19.078 30.6803 19.078C34.3994 19.078 37.4251 16.0523 37.4251 12.3332C37.4251 8.61409 34.3994 5.58841 30.6803 5.58841C28.9373 5.58841 27.3466 6.25305 26.1483 7.34215C24.7897 6.63349 23.3322 6.13237 21.8271 5.85246C22.1628 5.32837 22.3584 4.70621 22.3584 4.03893C22.3584 2.17946 20.8456 0.666626 18.986 0.666626C17.1265 0.666626 15.6136 2.17946 15.6136 4.03893C15.6136 4.70548 15.8088 5.32691 16.1438 5.85073C8.9528 7.1892 3.49125 13.51 3.49125 21.0832V31.6158C3.49125 32.9436 2.92542 34.2225 1.93867 35.1245C1.07179 35.9169 0.574585 37.0448 0.574585 38.2188C0.574585 40.5305 2.45538 42.4113 4.76711 42.4113H13.2244C13.6633 45.1964 16.0796 47.3332 18.986 47.3332C21.8925 47.3332 24.3088 45.1964 24.7477 42.4113H33.205C35.5167 42.4113 37.3975 40.5305 37.3975 38.2188C37.3975 37.0448 36.9003 35.9169 36.0333 35.1245ZM30.6802 7.41133C33.3942 7.41133 35.6021 9.61933 35.6021 12.3332C35.6021 15.0471 33.3942 17.2551 30.6802 17.2551C27.9663 17.2551 25.7584 15.0471 25.7584 12.3332C25.7584 9.61933 27.9663 7.41133 30.6802 7.41133ZM18.986 2.48945C19.8404 2.48945 20.5355 3.18453 20.5355 4.03884C20.5355 4.89324 19.8404 5.58832 18.986 5.58832C18.1316 5.58832 17.4366 4.89324 17.4366 4.03884C17.4366 3.18453 18.1316 2.48945 18.986 2.48945ZM18.986 45.5103C17.0883 45.5103 15.4953 44.1848 15.0814 42.4113H22.8907C22.4767 44.1848 20.8838 45.5103 18.986 45.5103Z" />
</svg>
